# xmcd CD database file
# Copyright (C) 1993-1998 Ti Kan
#
# Track frame offsets:
#  150
#  8297
#  18780
#  28992
#  47880
#  64017
#  81857
#  98767
#  112147
#  130330
#  141745
#  160560
#
# Disc length: 2384 seconds
#
# Revision: 1
# Processed by: cddbd v1.4b41PL1 Copyright (c) Steve Scherf et al.
# Submitted via: CDWizzard Release:4.35
#
DISCID=99094e0c
DTITLE=Punches Of Joy - Introduction
DYEAR=1900
DGENRE=
TTITLE0=Introduction
TTITLE1=Desert valley
TTITLE2=The giant
TTITLE3=Change me
TTITLE4=Come back
TTITLE5=Give love
TTITLE6=1998
TTITLE7=My sister
TTITLE8=All right
TTITLE9=Sail dont drift
TTITLE10=Man of sunshine
TTITLE11=Weakness
EXTD=
EXTT0=
EXTT1=
EXTT2=
EXTT3=
EXTT4=
EXTT5=
EXTT6=
EXTT7=
EXTT8=
EXTT9=
EXTT10=
EXTT11=
PLAYORDER=
